# xmcd
#
# Track frame offsets:
#	150
#	12031
#	27581
#	41016
#	44101
#	50370
#	52533
#	56894
#	66586
#	84027
#	98010
#	109145
#	133819
#	141344
#	147239
#	158406
#	164299
#	169991
#	178029
#	183983
#	195275
#	202247
#	228711
#	248322
#	253086
#	259168
#	268066
#	273285
#	289905
#	293432
#	305673
#
# Disc length: 4293 seconds
#
# Revision: 0
# Processed by: cddbd v1.5.2PL0 Copyright (c) Steve Scherf et al.
# Submitted via: dBpowerAMP V4.0
#
DISCID=c910c31f
DTITLE=Various Artist - Saltpetre - Keep It Burning - CD1
DYEAR=1999
DGENRE=Speech
TTITLE0=Salena Saliva - Intro - Saltpetre Theme 
TTITLE1=Nick Constance - Soho Blue
TTITLE2=Roxanne Escobales - Tijuana Dreams 
TTITLE3=Paul Birtill - Out Walking with my Father
TTITLE4=Joeseph Rye - That's Nice 
TTITLE5=Trudy Blake - Take Away That Brochure
TTITLE6=Fran Landesman - Bustin' Our Asses Gratis
TTITLE7=Seni Seneviratne - Cinnamon Roots
TTITLE8=Jock Scot - Thunder Over Kilburn
TTITLE9=Cheryl B. - Motor Oil Queen
TTITLE10=John Cooper Clarke - The Day My Pad Went Mad 
TTITLE11=Ivan Penaluna - Street Walking Beat Poet
TTITLE12=Oliva Spleen - Formaldehyde,Thalidomide,Hermaphrodite.
TTITLE13=Tim Turnbull - Binary
TTITLE14=Salena Saliva - Magpie
TTITLE15=Tim Wells - Space
TTITLE16=Bette O'Callaghan - How I Got Religion
TTITLE17=Joe Ross - Stream
TTITLE18=Jack Phillips Lowe - Poem for Alistair Frasier
TTITLE19=John Siddique - The Kissing Ritual
TTITLE20=Martin Newell - Around the Counties with Martin Newell
TTITLE21=Jock Scot and Salena Saliva - Just Can't Get the Staff Nowadays - Three Fury's Mourning at the Base of the Crucifiction 
TTITLE22=Charley Marlowe - This Way
TTITLE23=Jenny Wren - On The Cusp Of My Cunt
TTITLE24=Bette O'Callaghan - To Die For
TTITLE25=A.D. Winans - D.A.Levy Was Dead Right
TTITLE26=Paul Birtill - Brilliant Student - Best Seller
TTITLE27=Paul Lyalls - Postcard from Nowhere
TTITLE28=Joe Asser - Rush Hour 
TTITLE29=Francesca Beard - The Poem That Was Really A List
TTITLE30=Salena Saliva - Exit - Saltpetre Theme
EXTD=
EXTT0=
EXTT1=
EXTT2=
EXTT3=
EXTT4=
EXTT5=
EXTT6=
EXTT7=
EXTT8=
EXTT9=
EXTT10=
EXTT11=
EXTT12=
EXTT13=
EXTT14=
EXTT15=
EXTT16=
EXTT17=
EXTT18=
EXTT19=
EXTT20=
EXTT21=
EXTT22=
EXTT23=
EXTT24=
EXTT25=
EXTT26=
EXTT27=
EXTT28=
EXTT29=
EXTT30=
PLAYORDER=
